<svg width="312" height="78" viewBox="0 0 312 78" fill="none" xmlns="http://www.w3.org/2000/svg">
<g clip-path="url(#clip0_8_1285)">
<path d="M5.99492 17.6591C5.95633 16.5433 6.80179 15.5943 7.91461 15.5044L40.9016 12.8378C42.4853 12.7097 43.8551 13.9302 43.9101 15.5181L44.9649 46.0127C45.0164 47.5004 43.8891 48.7657 42.4053 48.8856L7.17355 51.7337L5.99492 17.6591Z" fill="url(#paint0_linear_8_1285)"/>
<path d="M6.01715 18.1915C5.97428 16.9523 7.01395 15.9486 8.25094 16.0351L37.7502 18.098C38.1058 18.1229 38.3853 18.4124 38.3976 18.7687L39.5968 53.4376C39.6111 53.8507 39.2646 54.1852 38.8522 54.1564L7.18456 51.9418L6.01715 18.1915Z" fill="url(#paint1_linear_8_1285)"/>
<path d="M6.04501 18.9957C5.99356 17.5083 7.4696 16.4455 8.86388 16.9662L31.9282 25.5782C32.1923 25.6768 32.3709 25.9249 32.3806 26.2066L33.5762 60.7689C33.5933 61.2647 33.1013 61.6189 32.6366 61.4454L7.1846 51.9419L6.04501 18.9957Z" fill="url(#paint2_linear_8_1285)"/>
<path d="M6.03185 17.3611C5.99049 16.1202 7.47065 15.4494 8.37649 16.2985L25.8713 32.6974C26.5431 33.3272 26.9382 34.1973 26.97 35.1176L27.9501 63.4518C28.0338 65.8693 25.208 67.2372 23.3636 65.672L7.18469 51.9418L6.03185 17.3611Z" fill="url(#paint3_linear_8_1285)"/>
<path d="M67.8193 51.523C66.955 51.523 66.2852 51.2833 65.8098 50.804C65.356 50.3247 65.1292 49.6493 65.1292 48.7778V30.6401C65.1292 29.7469 65.3776 29.0715 65.8746 28.6139C66.3716 28.1346 67.0739 27.895 67.9814 27.895C68.7377 27.895 69.3319 28.0475 69.7641 28.3525C70.2178 28.6357 70.6284 29.115 70.9957 29.7904L77.9643 42.4051H76.8299L83.766 29.7904C84.1549 29.115 84.5655 28.6357 84.9977 28.3525C85.4514 28.0475 86.0564 27.895 86.8127 27.895C87.677 27.895 88.3361 28.1346 88.7899 28.6139C89.2652 29.0715 89.5029 29.7469 89.5029 30.6401V48.7778C89.5029 49.6493 89.276 50.3247 88.8223 50.804C88.3685 51.2833 87.6987 51.523 86.8127 51.523C85.9484 51.523 85.2786 51.2833 84.8032 50.804C84.3494 50.3247 84.1225 49.6493 84.1225 48.7778V37.5357H84.8032L79.5849 46.6863C79.2824 47.1656 78.9582 47.5251 78.6125 47.7647C78.2884 48.0044 77.8454 48.1242 77.2836 48.1242C76.7434 48.1242 76.3005 48.0044 75.9547 47.7647C75.609 47.5251 75.2957 47.1656 75.0148 46.6863L69.7641 37.503H70.5095V48.7778C70.5095 49.6493 70.2826 50.3247 69.8289 50.804C69.3751 51.2833 68.7053 51.523 67.8193 51.523Z" fill="#152C68"/>
<path d="M101.683 51.5884C99.9111 51.5884 98.3661 51.2507 97.0481 50.5753C95.73 49.8999 94.7036 48.9303 93.9689 47.6667C93.2343 46.403 92.8669 44.9106 92.8669 43.1895C92.8669 41.8822 93.0722 40.7166 93.4827 39.6926C93.8933 38.6469 94.4875 37.7645 95.2654 37.0455C96.0433 36.3048 96.9724 35.7492 98.0528 35.3788C99.1332 34.9866 100.343 34.7906 101.683 34.7906C103.455 34.7906 105 35.1283 106.318 35.8037C107.636 36.4791 108.652 37.4486 109.365 38.7122C110.099 39.9541 110.467 41.4465 110.467 43.1895C110.467 44.4749 110.261 45.6405 109.851 46.6863C109.44 47.7321 108.846 48.6253 108.068 49.3661C107.312 50.0851 106.383 50.6406 105.281 51.0328C104.2 51.4032 103.001 51.5884 101.683 51.5884ZM101.683 47.3072C102.266 47.3072 102.785 47.1656 103.239 46.8824C103.693 46.5773 104.038 46.1307 104.276 45.5425C104.535 44.9324 104.665 44.1481 104.665 43.1895C104.665 41.7297 104.384 40.6839 103.822 40.0521C103.26 39.3985 102.547 39.0717 101.683 39.0717C101.1 39.0717 100.581 39.2133 100.127 39.4966C99.6734 39.7798 99.3169 40.2264 99.0576 40.8365C98.7983 41.4247 98.6687 42.209 98.6687 43.1895C98.6687 44.6274 98.9496 45.6732 99.5114 46.3268C100.073 46.9804 100.797 47.3072 101.683 47.3072Z" fill="#152C68"/>
<path d="M116.305 51.523C115.722 51.523 115.225 51.4141 114.814 51.1962C114.425 50.9783 114.134 50.6406 113.939 50.1831C113.745 49.7256 113.648 49.1482 113.648 48.451V37.6011C113.648 36.7078 113.874 36.0324 114.328 35.5749C114.782 35.0956 115.43 34.8559 116.273 34.8559C117.094 34.8559 117.721 35.0956 118.153 35.5749C118.607 36.0324 118.833 36.7078 118.833 37.6011V45.0522H117.926L124.214 36.686C124.516 36.2939 124.905 35.8908 125.381 35.4768C125.878 35.0629 126.569 34.8559 127.455 34.8559C128.06 34.8559 128.557 34.9649 128.946 35.1827C129.335 35.4006 129.627 35.7383 129.821 36.1958C130.016 36.6316 130.113 37.2089 130.113 37.9279V48.7778C130.113 49.6493 129.886 50.3247 129.432 50.804C129 51.2833 128.363 51.523 127.52 51.523C126.677 51.523 126.029 51.2833 125.575 50.804C125.143 50.3247 124.927 49.6493 124.927 48.7778V41.294H125.834L119.546 49.6929C119.266 50.0851 118.877 50.4881 118.38 50.9021C117.904 51.316 117.213 51.523 116.305 51.523ZM121.88 33.1565C120.303 33.1565 119.006 32.8297 117.991 32.1761C116.975 31.5007 116.262 30.6401 115.852 29.5944C115.657 29.0715 115.646 28.6357 115.819 28.2871C116.014 27.9168 116.327 27.6662 116.759 27.5355C117.191 27.383 117.559 27.4048 117.861 27.6008C118.164 27.7969 118.466 28.1346 118.769 28.6139C119.093 29.1368 119.503 29.529 120 29.7904C120.519 30.0519 121.145 30.1826 121.88 30.1826C122.636 30.1826 123.263 30.0519 123.76 29.7904C124.257 29.529 124.668 29.1368 124.992 28.6139C125.294 28.1346 125.597 27.7969 125.899 27.6008C126.223 27.4048 126.591 27.383 127.001 27.5355C127.455 27.6662 127.768 27.9168 127.941 28.2871C128.136 28.6357 128.125 29.0715 127.909 29.5944C127.455 30.6401 126.731 31.5007 125.737 32.1761C124.743 32.8297 123.458 33.1565 121.88 33.1565Z" fill="#152C68"/>
<path d="M133.805 56.5885C133.417 56.5885 133.114 56.4795 132.898 56.2617C132.703 56.0438 132.606 55.7279 132.606 55.3139V50.3138C132.606 49.4205 133.049 48.9739 133.935 48.9739H136.042L134.454 49.4314C135.707 48.0371 136.636 46.098 137.241 43.6143C137.846 41.1088 138.149 37.9497 138.149 34.1369V29.6597C138.149 29.1804 138.268 28.8209 138.505 28.5813C138.764 28.3198 139.132 28.1891 139.607 28.1891H151.859C152.313 28.1891 152.669 28.3198 152.928 28.5813C153.188 28.8209 153.317 29.1804 153.317 29.6597V50.0524L152.248 48.9739H155.197C155.629 48.9739 155.964 49.0937 156.202 49.3334C156.44 49.5513 156.559 49.8781 156.559 50.3138V55.3139C156.559 56.1636 156.159 56.5885 155.359 56.5885C154.949 56.5885 154.636 56.4795 154.419 56.2617C154.225 56.0438 154.128 55.7279 154.128 55.3139V51.2289H135.005V55.3139C135.005 56.1636 134.605 56.5885 133.805 56.5885ZM137.63 48.9739H150.627V30.444H140.644V34.333C140.644 37.8407 140.396 40.7711 139.899 43.1241C139.424 45.4771 138.667 47.427 137.63 48.9739Z" fill="#152C68"/>
<path d="M161.204 51.4576C160.772 51.4576 160.437 51.3378 160.199 51.0981C159.983 50.8585 159.875 50.5208 159.875 50.0851V36.4573C159.875 35.9997 159.983 35.662 160.199 35.4442C160.437 35.2263 160.772 35.1174 161.204 35.1174C161.614 35.1174 161.928 35.2263 162.144 35.4442C162.382 35.662 162.5 35.9997 162.5 36.4573V41.9476H171.09V36.4573C171.09 35.9997 171.198 35.662 171.414 35.4442C171.651 35.2263 171.975 35.1174 172.386 35.1174C172.797 35.1174 173.121 35.2263 173.358 35.4442C173.596 35.662 173.715 35.9997 173.715 36.4573V50.0851C173.715 50.5208 173.596 50.8585 173.358 51.0981C173.121 51.3378 172.797 51.4576 172.386 51.4576C171.975 51.4576 171.651 51.3378 171.414 51.0981C171.198 50.8585 171.09 50.5208 171.09 50.0851V44.1045H162.5V50.0851C162.5 50.5208 162.392 50.8585 162.176 51.0981C161.96 51.3378 161.636 51.4576 161.204 51.4576Z" fill="#152C68"/>
<path d="M186.029 51.523C184.365 51.523 182.928 51.1962 181.718 50.5426C180.529 49.8672 179.6 48.9194 178.93 47.6994C178.282 46.4793 177.958 45.0196 177.958 43.3202C177.958 41.6644 178.282 40.2264 178.93 39.0063C179.579 37.7645 180.465 36.795 181.588 36.0978C182.733 35.4006 184.052 35.052 185.542 35.052C186.601 35.052 187.552 35.2372 188.395 35.6076C189.237 35.9562 189.951 36.4682 190.534 37.1436C191.139 37.819 191.593 38.636 191.895 39.5946C192.219 40.5532 192.381 41.6317 192.381 42.83C192.381 43.1786 192.284 43.44 192.09 43.6143C191.895 43.7668 191.614 43.8431 191.247 43.8431H179.968V42.111H190.631L190.113 42.5358C190.113 41.3593 189.94 40.368 189.594 39.5619C189.248 38.734 188.74 38.1022 188.071 37.6664C187.422 37.2307 186.601 37.0128 185.607 37.0128C184.505 37.0128 183.565 37.2743 182.787 37.7972C182.031 38.2983 181.459 39.0063 181.07 39.9214C180.681 40.8147 180.486 41.8604 180.486 43.0587V43.2548C180.486 45.2592 180.962 46.7843 181.912 47.8301C182.885 48.8759 184.257 49.3988 186.029 49.3988C186.763 49.3988 187.487 49.3007 188.2 49.1046C188.935 48.9086 189.648 48.5817 190.339 48.1242C190.642 47.9281 190.912 47.841 191.15 47.8628C191.409 47.8628 191.614 47.939 191.766 48.0915C191.917 48.2223 192.014 48.3966 192.057 48.6144C192.122 48.8105 192.101 49.0284 191.992 49.268C191.906 49.5077 191.722 49.7147 191.441 49.889C190.728 50.4119 189.886 50.8149 188.913 51.0981C187.941 51.3814 186.979 51.523 186.029 51.523Z" fill="#152C68"/>
<path d="M197.826 51.2289C197.394 51.2289 197.059 51.109 196.822 50.8694C196.584 50.6297 196.465 50.292 196.465 49.8563V36.7187C196.465 36.283 196.584 35.9453 196.822 35.7056C197.059 35.466 197.394 35.3461 197.826 35.3461H204.147C205.4 35.3461 206.426 35.5095 207.226 35.8363C208.025 36.1414 208.62 36.6098 209.008 37.2416C209.397 37.8516 209.592 38.6142 209.592 39.5292C209.592 40.5314 209.235 41.3811 208.522 42.0783C207.831 42.7755 206.923 43.1895 205.8 43.3202V42.8953C207.139 42.9389 208.187 43.3202 208.944 44.0392C209.722 44.7581 210.11 45.695 210.11 46.8497C210.11 48.2005 209.613 49.268 208.62 50.0524C207.626 50.8367 206.221 51.2289 204.406 51.2289H197.826ZM198.961 49.4314H204.309C205.368 49.4314 206.178 49.2027 206.74 48.7451C207.323 48.2658 207.615 47.5904 207.615 46.719C207.615 45.8475 207.323 45.183 206.74 44.7254C206.178 44.2679 205.368 44.0392 204.309 44.0392H198.961V49.4314ZM198.961 42.2417H204.017C204.989 42.2417 205.746 42.013 206.286 41.5554C206.848 41.0979 207.129 40.4661 207.129 39.66C207.129 38.8538 206.848 38.2329 206.286 37.7972C205.746 37.3614 204.989 37.1436 204.017 37.1436H198.961V42.2417Z" fill="#152C68"/>
<path d="M215.519 51.4576C215.087 51.4576 214.752 51.3378 214.514 51.0981C214.298 50.8585 214.19 50.5208 214.19 50.0851V36.4573C214.19 35.9997 214.298 35.662 214.514 35.4442C214.752 35.2263 215.087 35.1174 215.519 35.1174C215.93 35.1174 216.243 35.2263 216.459 35.4442C216.697 35.662 216.816 35.9997 216.816 36.4573V41.9476H225.405V36.4573C225.405 35.9997 225.513 35.662 225.729 35.4442C225.967 35.2263 226.291 35.1174 226.701 35.1174C227.112 35.1174 227.436 35.2263 227.674 35.4442C227.911 35.662 228.03 35.9997 228.03 36.4573V50.0851C228.03 50.5208 227.911 50.8585 227.674 51.0981C227.436 51.3378 227.112 51.4576 226.701 51.4576C226.291 51.4576 225.967 51.3378 225.729 51.0981C225.513 50.8585 225.405 50.5208 225.405 50.0851V44.1045H216.816V50.0851C216.816 50.5208 216.708 50.8585 216.492 51.0981C216.275 51.3378 215.951 51.4576 215.519 51.4576Z" fill="#152C68"/>
<path d="M234.413 51.4576C234.175 51.4576 233.959 51.4032 233.764 51.2942C233.591 51.2071 233.451 51.0546 233.343 50.8367C233.257 50.6188 233.213 50.3465 233.213 50.0197V36.4246C233.213 35.9888 233.321 35.662 233.537 35.4442C233.754 35.2263 234.045 35.1174 234.413 35.1174C234.802 35.1174 235.093 35.2263 235.288 35.4442C235.504 35.662 235.612 35.9888 235.612 36.4246V48.7125H234.802L244.233 35.9671C244.406 35.7274 244.612 35.5313 244.849 35.3788C245.087 35.2045 245.389 35.1174 245.757 35.1174C246.016 35.1174 246.232 35.1609 246.405 35.2481C246.578 35.3352 246.707 35.4877 246.794 35.7056C246.902 35.9017 246.956 36.174 246.956 36.5226V50.1504C246.956 50.5644 246.848 50.8912 246.632 51.1308C246.437 51.3487 246.146 51.4576 245.757 51.4576C245.368 51.4576 245.065 51.3487 244.849 51.1308C244.655 50.8912 244.558 50.5644 244.558 50.1504V37.8298H245.368L235.904 50.6079C235.752 50.8258 235.558 51.0219 235.32 51.1962C235.104 51.3705 234.802 51.4576 234.413 51.4576Z" fill="#152C68"/>
<path d="M263.55 51.4576C263.14 51.4576 262.816 51.3378 262.578 51.0981C262.362 50.8367 262.254 50.4881 262.254 50.0524V44.7908C261.649 45.1612 260.99 45.4444 260.277 45.6405C259.585 45.8148 258.851 45.9019 258.073 45.9019C255.826 45.9019 254.162 45.3682 253.081 44.3006C252.001 43.2112 251.461 41.5663 251.461 39.3658V36.4573C251.461 36.0215 251.569 35.6947 251.785 35.4768C252.023 35.2372 252.357 35.1174 252.79 35.1174C253.2 35.1174 253.514 35.2372 253.73 35.4768C253.967 35.6947 254.086 36.0215 254.086 36.4573V39.1698C254.086 40.7384 254.421 41.8822 255.091 42.6012C255.782 43.3202 256.884 43.6797 258.397 43.6797C259.175 43.6797 259.866 43.5925 260.471 43.4182C261.076 43.2439 261.66 42.9607 262.222 42.5685V36.4899C262.222 35.5749 262.654 35.1174 263.518 35.1174C263.95 35.1174 264.274 35.2372 264.49 35.4768C264.728 35.7165 264.847 36.0542 264.847 36.4899V50.0524C264.847 50.4881 264.739 50.8367 264.523 51.0981C264.307 51.3378 263.983 51.4576 263.55 51.4576Z" fill="#152C68"/>
<path d="M276.605 51.523C275.07 51.523 273.742 51.1853 272.618 50.5099C271.494 49.8345 270.619 48.8868 269.993 47.6667C269.387 46.4248 269.085 44.9651 269.085 43.2875C269.085 42.0239 269.258 40.8909 269.604 39.8887C269.949 38.8647 270.457 37.9933 271.127 37.2743C271.797 36.5553 272.585 36.0106 273.493 35.6403C274.422 35.2481 275.459 35.052 276.605 35.052C278.139 35.052 279.468 35.3897 280.591 36.0651C281.715 36.7405 282.579 37.6991 283.184 38.941C283.811 40.1611 284.124 41.6099 284.124 43.2875C284.124 44.5511 283.951 45.6841 283.606 46.6863C283.26 47.6885 282.752 48.56 282.082 49.3007C281.412 50.0197 280.613 50.5753 279.684 50.9674C278.776 51.3378 277.75 51.523 276.605 51.523ZM276.605 49.3988C277.577 49.3988 278.43 49.1591 279.165 48.6798C279.9 48.2005 280.462 47.5033 280.851 46.5882C281.261 45.6732 281.466 44.5729 281.466 43.2875C281.466 41.3049 281.023 39.7907 280.137 38.7449C279.273 37.6991 278.095 37.1762 276.605 37.1762C275.611 37.1762 274.746 37.4159 274.012 37.8952C273.299 38.3527 272.737 39.039 272.326 39.9541C271.937 40.8474 271.743 41.9585 271.743 43.2875C271.743 45.2483 272.186 46.7625 273.072 47.8301C273.958 48.8759 275.135 49.3988 276.605 49.3988Z" fill="#152C68"/>
<path d="M289.712 51.4576C289.28 51.4576 288.945 51.3378 288.707 51.0981C288.491 50.8585 288.383 50.5208 288.383 50.0851V36.5553C288.383 36.0978 288.491 35.7601 288.707 35.5422C288.945 35.3026 289.28 35.1827 289.712 35.1827C290.123 35.1827 290.436 35.3026 290.652 35.5422C290.89 35.7601 291.009 36.0978 291.009 36.5553V41.9803H293.958L298.755 35.771C298.971 35.5095 299.209 35.3461 299.468 35.2808C299.727 35.1936 299.965 35.1936 300.181 35.2808C300.419 35.3461 300.603 35.4768 300.732 35.6729C300.883 35.8472 300.959 36.0651 300.959 36.3265C300.959 36.588 300.862 36.8603 300.667 37.1436L296.097 43.0587L295.352 42.209C295.957 42.2744 296.486 42.4269 296.94 42.6666C297.394 42.9062 297.826 43.2657 298.236 43.745C298.647 44.2243 299.09 44.8888 299.565 45.7385L301.899 49.6275C302.05 49.9325 302.104 50.2049 302.061 50.4445C302.039 50.6842 301.931 50.9021 301.737 51.0981C301.542 51.2724 301.316 51.3814 301.056 51.425C300.819 51.4685 300.581 51.4358 300.343 51.3269C300.106 51.218 299.889 51.0219 299.695 50.7387L297.134 46.4248C296.767 45.8148 296.421 45.3464 296.097 45.0196C295.773 44.671 295.406 44.4313 294.995 44.3006C294.585 44.1699 294.077 44.1045 293.472 44.1045H291.009V50.0851C291.009 50.5208 290.89 50.8585 290.652 51.0981C290.436 51.3378 290.123 51.4576 289.712 51.4576Z" fill="#152C68"/>
</g>
<defs>
<linearGradient id="paint0_linear_8_1285" x1="9.44204" y1="61.0344" x2="40.2931" y2="4.77657" gradientUnits="userSpaceOnUse">
<stop stop-color="#152C68"/>
<stop offset="0.37" stop-color="#2B76B9"/>
<stop offset="0.65" stop-color="#2CACD1"/>
<stop offset="1" stop-color="#35EB93"/>
</linearGradient>
<linearGradient id="paint1_linear_8_1285" x1="24.4249" y1="7.02633" x2="38.2625" y2="57.613" gradientUnits="userSpaceOnUse">
<stop stop-color="#0ACFFE"/>
<stop offset="1" stop-color="#495AFF"/>
</linearGradient>
<linearGradient id="paint2_linear_8_1285" x1="6.64886" y1="39.4023" x2="40.7579" y2="31.1854" gradientUnits="userSpaceOnUse">
<stop stop-color="#0ACFFE"/>
<stop offset="1" stop-color="#495AFF"/>
</linearGradient>
<linearGradient id="paint3_linear_8_1285" x1="26.1262" y1="67.4808" x2="0.15236" y2="-2.50121" gradientUnits="userSpaceOnUse">
<stop stop-color="#152C68"/>
<stop offset="0.48" stop-color="#5753C9"/>
<stop offset="1" stop-color="#6E7FF3"/>
</linearGradient>
<clipPath id="clip0_8_1285">
<rect width="312" height="76.9145" fill="white" transform="translate(0 0.76342)"/>
</clipPath>
</defs>
</svg>
