<svg width="186" height="46" viewBox="0 0 186 46" fill="none" xmlns="http://www.w3.org/2000/svg">
<g clip-path="url(#clip0_8_1851)">
<path d="M3.574 10.0724C3.55099 9.40723 4.05502 8.8415 4.71843 8.78787L24.3837 7.19816C25.3279 7.12183 26.1445 7.8494 26.1773 8.79606L26.8061 26.9755C26.8368 27.8624 26.1648 28.6167 25.2802 28.6882L4.27664 30.3861L3.574 10.0724Z" fill="url(#paint0_linear_8_1851)"/>
<path d="M3.58719 10.3898C3.56163 9.65104 4.18144 9.05271 4.91887 9.10428L22.5049 10.3341C22.717 10.3489 22.8836 10.5215 22.8909 10.7339L23.6059 31.4019C23.6144 31.6482 23.4078 31.8476 23.162 31.8304L4.28314 30.5102L3.58719 10.3898Z" fill="url(#paint1_linear_8_1851)"/>
<path d="M3.60381 10.8692C3.57314 9.98249 4.45308 9.34896 5.28429 9.65932L19.0342 14.7934C19.1916 14.8522 19.2981 15.0001 19.3039 15.168L20.0166 35.7725C20.0269 36.0681 19.7335 36.2793 19.4565 36.1758L4.28318 30.5102L3.60381 10.8692Z" fill="url(#paint2_linear_8_1851)"/>
<path d="M3.59597 9.89478C3.5713 9.15502 4.45371 8.7551 4.99373 9.26129L15.4234 19.0376C15.8239 19.413 16.0594 19.9318 16.0783 20.4804L16.6626 37.3719C16.7125 38.8131 15.0279 39.6286 13.9283 38.6955L4.28323 30.5102L3.59597 9.89478Z" fill="url(#paint3_linear_8_1851)"/>
<path d="M40.4307 30.2605C39.9154 30.2605 39.5161 30.1176 39.2327 29.8319C38.9622 29.5461 38.8269 29.1435 38.8269 28.624V17.8111C38.8269 17.2786 38.975 16.8759 39.2713 16.6032C39.5676 16.3174 39.9863 16.1746 40.5273 16.1746C40.9781 16.1746 41.3324 16.2655 41.59 16.4473C41.8605 16.6162 42.1053 16.9019 42.3243 17.3046L46.4786 24.8249H45.8023L49.9373 17.3046C50.1692 16.9019 50.414 16.6162 50.6716 16.4473C50.9421 16.2655 51.3028 16.1746 51.7537 16.1746C52.2689 16.1746 52.6618 16.3174 52.9323 16.6032C53.2157 16.8759 53.3574 17.2786 53.3574 17.8111V28.624C53.3574 29.1435 53.2222 29.5461 52.9516 29.8319C52.6811 30.1176 52.2818 30.2605 51.7537 30.2605C51.2384 30.2605 50.8391 30.1176 50.5557 29.8319C50.2851 29.5461 50.1499 29.1435 50.1499 28.624V21.9219H50.5557L47.4447 27.3771C47.2644 27.6628 47.0712 27.8771 46.8651 28.02C46.6718 28.1629 46.4078 28.2343 46.0728 28.2343C45.7508 28.2343 45.4867 28.1629 45.2806 28.02C45.0745 27.8771 44.8877 27.6628 44.7203 27.3771L41.59 21.9025H42.0344V28.624C42.0344 29.1435 41.8992 29.5461 41.6287 29.8319C41.3582 30.1176 40.9588 30.2605 40.4307 30.2605Z" fill="#152C68"/>
<path d="M60.6186 30.2995C59.5623 30.2995 58.6413 30.0982 57.8555 29.6955C57.0697 29.2929 56.4578 28.7149 56.0198 27.9616C55.5819 27.2082 55.3629 26.3185 55.3629 25.2924C55.3629 24.5131 55.4853 23.8183 55.73 23.2078C55.9748 22.5844 56.329 22.0583 56.7927 21.6297C57.2565 21.1881 57.8104 20.8569 58.4545 20.6361C59.0986 20.4023 59.8199 20.2854 60.6186 20.2854C61.6749 20.2854 62.5959 20.4867 63.3817 20.8894C64.1675 21.292 64.7729 21.87 65.198 22.6233C65.636 23.3637 65.855 24.2534 65.855 25.2924C65.855 26.0588 65.7326 26.7536 65.4879 27.3771C65.2431 28.0005 64.8889 28.5331 64.4251 28.9747C63.9743 29.4033 63.4204 29.7345 62.7634 29.9683C62.1193 30.1891 61.4044 30.2995 60.6186 30.2995ZM60.6186 27.7473C60.9664 27.7473 61.2756 27.6628 61.5461 27.494C61.8166 27.3121 62.0227 27.0459 62.1644 26.6952C62.319 26.3315 62.3963 25.8639 62.3963 25.2924C62.3963 24.4222 62.2288 23.7988 61.8939 23.4221C61.559 23.0325 61.1339 22.8376 60.6186 22.8376C60.2708 22.8376 59.9616 22.9221 59.6911 23.0909C59.4206 23.2598 59.2081 23.526 59.0535 23.8897C58.8989 24.2404 58.8216 24.708 58.8216 25.2924C58.8216 26.1497 58.9891 26.7731 59.324 27.1628C59.6589 27.5524 60.0905 27.7473 60.6186 27.7473Z" fill="#152C68"/>
<path d="M69.3358 30.2605C68.988 30.2605 68.6917 30.1956 68.4469 30.0657C68.2151 29.9358 68.0412 29.7345 67.9252 29.4617C67.8093 29.189 67.7513 28.8448 67.7513 28.4291V21.9609C67.7513 21.4284 67.8866 21.0257 68.1571 20.753C68.4276 20.4672 68.8141 20.3244 69.3164 20.3244C69.8059 20.3244 70.1795 20.4672 70.4371 20.753C70.7077 21.0257 70.8429 21.4284 70.8429 21.9609V26.403H70.3019L74.0504 21.4154C74.2308 21.1816 74.4627 20.9413 74.7461 20.6945C75.0423 20.4478 75.4546 20.3244 75.9827 20.3244C76.3434 20.3244 76.6397 20.3893 76.8715 20.5192C77.1034 20.6491 77.2773 20.8504 77.3932 21.1232C77.5092 21.3829 77.5671 21.7271 77.5671 22.1557V28.624C77.5671 29.1435 77.4319 29.5461 77.1614 29.8319C76.9037 30.1176 76.5237 30.2605 76.0213 30.2605C75.519 30.2605 75.1325 30.1176 74.862 29.8319C74.6044 29.5461 74.4755 29.1435 74.4755 28.624V24.1624H75.0166L71.268 29.1695C71.1005 29.4033 70.8687 29.6436 70.5724 29.8903C70.289 30.1371 69.8768 30.2605 69.3358 30.2605ZM72.6592 19.3113C71.7189 19.3113 70.946 19.1164 70.3405 18.7268C69.7351 18.3242 69.31 17.8111 69.0652 17.1877C68.9493 16.8759 68.9429 16.6162 69.0459 16.4084C69.1619 16.1876 69.3486 16.0382 69.6063 15.9603C69.8639 15.8693 70.0829 15.8823 70.2632 15.9992C70.4436 16.1161 70.6239 16.3174 70.8043 16.6032C70.9975 16.9149 71.2422 17.1487 71.5385 17.3046C71.8477 17.4604 72.2213 17.5384 72.6592 17.5384C73.1101 17.5384 73.4837 17.4604 73.7799 17.3046C74.0762 17.1487 74.321 16.9149 74.5142 16.6032C74.6945 16.3174 74.8749 16.1161 75.0552 15.9992C75.2484 15.8823 75.4674 15.8693 75.7122 15.9603C75.9827 16.0382 76.1695 16.1876 76.2725 16.4084C76.3885 16.6162 76.382 16.8759 76.2532 17.1877C75.9827 17.8111 75.5512 18.3242 74.9586 18.7268C74.3661 19.1164 73.5996 19.3113 72.6592 19.3113Z" fill="#152C68"/>
<path d="M79.7685 33.2803C79.5367 33.2803 79.3563 33.2154 79.2275 33.0855C79.1116 32.9556 79.0536 32.7673 79.0536 32.5205V29.5397C79.0536 29.0071 79.3177 28.7409 79.8458 28.7409H81.1018L80.155 29.0136C80.9021 28.1824 81.456 27.0264 81.8167 25.5457C82.1774 24.052 82.3578 22.1687 82.3578 19.8958V17.2266C82.3578 16.9409 82.4286 16.7266 82.5703 16.5837C82.7249 16.4278 82.9439 16.3499 83.2273 16.3499H90.5312C90.8017 16.3499 91.0142 16.4278 91.1688 16.5837C91.3234 16.7266 91.4007 16.9409 91.4007 17.2266V29.3838L90.763 28.7409H92.5214C92.779 28.7409 92.9787 28.8123 93.1204 28.9552C93.2621 29.0851 93.3329 29.2799 93.3329 29.5397V32.5205C93.3329 33.027 93.0946 33.2803 92.618 33.2803C92.3733 33.2803 92.1865 33.2154 92.0577 33.0855C91.9417 32.9556 91.8838 32.7673 91.8838 32.5205V30.0852H80.4835V32.5205C80.4835 33.027 80.2452 33.2803 79.7685 33.2803ZM82.0486 28.7409H89.7969V17.6942H83.8456V20.0126C83.8456 22.1038 83.6975 23.8507 83.4012 25.2535C83.1178 26.6562 82.6669 27.8187 82.0486 28.7409Z" fill="#152C68"/>
<path d="M96.1022 30.2215C95.8446 30.2215 95.6449 30.1501 95.5032 30.0072C95.3744 29.8644 95.31 29.663 95.31 29.4033V21.279C95.31 21.0063 95.3744 20.8049 95.5032 20.6751C95.6449 20.5452 95.8446 20.4802 96.1022 20.4802C96.347 20.4802 96.5338 20.5452 96.6626 20.6751C96.8043 20.8049 96.8751 21.0063 96.8751 21.279V24.5521H101.996V21.279C101.996 21.0063 102.06 20.8049 102.189 20.6751C102.331 20.5452 102.524 20.4802 102.768 20.4802C103.013 20.4802 103.206 20.5452 103.348 20.6751C103.49 20.8049 103.561 21.0063 103.561 21.279V29.4033C103.561 29.663 103.49 29.8644 103.348 30.0072C103.206 30.1501 103.013 30.2215 102.768 30.2215C102.524 30.2215 102.331 30.1501 102.189 30.0072C102.06 29.8644 101.996 29.663 101.996 29.4033V25.838H96.8751V29.4033C96.8751 29.663 96.8107 29.8644 96.6819 30.0072C96.5531 30.1501 96.3599 30.2215 96.1022 30.2215Z" fill="#152C68"/>
<path d="M110.902 30.2605C109.91 30.2605 109.053 30.0657 108.332 29.676C107.623 29.2734 107.069 28.7084 106.67 27.981C106.284 27.2537 106.09 26.3835 106.09 25.3704C106.09 24.3833 106.284 23.526 106.67 22.7987C107.056 22.0583 107.585 21.4803 108.254 21.0647C108.937 20.6491 109.723 20.4413 110.612 20.4413C111.243 20.4413 111.81 20.5517 112.312 20.7725C112.815 20.9803 113.24 21.2855 113.587 21.6882C113.948 22.0908 114.219 22.5779 114.399 23.1494C114.592 23.7208 114.689 24.3638 114.689 25.0781C114.689 25.2859 114.631 25.4418 114.515 25.5457C114.399 25.6366 114.232 25.6821 114.013 25.6821H107.288V24.6495H113.645L113.336 24.9028C113.336 24.2014 113.233 23.6104 113.027 23.1299C112.821 22.6363 112.518 22.2596 112.119 21.9999C111.732 21.7401 111.243 21.6102 110.65 21.6102C109.993 21.6102 109.433 21.7661 108.969 22.0778C108.519 22.3765 108.177 22.7987 107.945 23.3442C107.713 23.8767 107.597 24.5001 107.597 25.2145V25.3314C107.597 26.5263 107.881 27.4355 108.448 28.059C109.027 28.6824 109.845 28.9941 110.902 28.9941C111.34 28.9941 111.771 28.9357 112.196 28.8188C112.634 28.7019 113.059 28.5071 113.472 28.2343C113.652 28.1174 113.813 28.0655 113.955 28.0785C114.109 28.0785 114.232 28.1239 114.322 28.2148C114.412 28.2928 114.47 28.3967 114.496 28.5266C114.534 28.6435 114.521 28.7733 114.457 28.9162C114.405 29.0591 114.296 29.1825 114.128 29.2864C113.703 29.5981 113.201 29.8384 112.621 30.0072C112.042 30.1761 111.468 30.2605 110.902 30.2605Z" fill="#152C68"/>
<path d="M117.935 30.0852C117.677 30.0852 117.478 30.0137 117.336 29.8709C117.194 29.728 117.123 29.5267 117.123 29.2669V21.4349C117.123 21.1751 117.194 20.9738 117.336 20.8309C117.478 20.688 117.677 20.6166 117.935 20.6166H121.703C122.45 20.6166 123.062 20.714 123.538 20.9089C124.015 21.0907 124.369 21.3699 124.601 21.7466C124.833 22.1103 124.949 22.5649 124.949 23.1104C124.949 23.7079 124.736 24.2144 124.311 24.63C123.899 25.0457 123.358 25.2924 122.688 25.3704V25.1171C123.487 25.1431 124.112 25.3704 124.562 25.799C125.026 26.2276 125.258 26.7861 125.258 27.4745C125.258 28.2798 124.962 28.9162 124.369 29.3838C123.777 29.8514 122.939 30.0852 121.857 30.0852H117.935ZM118.611 29.0136H121.799C122.431 29.0136 122.914 28.8772 123.249 28.6045C123.596 28.3187 123.77 27.9161 123.77 27.3966C123.77 26.877 123.596 26.4809 123.249 26.2081C122.914 25.9354 122.431 25.799 121.799 25.799H118.611V29.0136ZM118.611 24.7274H121.625C122.205 24.7274 122.656 24.5911 122.978 24.3183C123.313 24.0456 123.48 23.6689 123.48 23.1883C123.48 22.7077 123.313 22.3376 122.978 22.0778C122.656 21.818 122.205 21.6882 121.625 21.6882H118.611V24.7274Z" fill="#152C68"/>
<path d="M128.483 30.2215C128.225 30.2215 128.025 30.1501 127.884 30.0072C127.755 29.8644 127.69 29.663 127.69 29.4033V21.279C127.69 21.0063 127.755 20.8049 127.884 20.6751C128.025 20.5452 128.225 20.4802 128.483 20.4802C128.727 20.4802 128.914 20.5452 129.043 20.6751C129.185 20.8049 129.255 21.0063 129.255 21.279V24.5521H134.376V21.279C134.376 21.0063 134.44 20.8049 134.569 20.6751C134.711 20.5452 134.904 20.4802 135.149 20.4802C135.394 20.4802 135.587 20.5452 135.728 20.6751C135.87 20.8049 135.941 21.0063 135.941 21.279V29.4033C135.941 29.663 135.87 29.8644 135.728 30.0072C135.587 30.1501 135.394 30.2215 135.149 30.2215C134.904 30.2215 134.711 30.1501 134.569 30.0072C134.44 29.8644 134.376 29.663 134.376 29.4033V25.838H129.255V29.4033C129.255 29.663 129.191 29.8644 129.062 30.0072C128.933 30.1501 128.74 30.2215 128.483 30.2215Z" fill="#152C68"/>
<path d="M139.746 30.2215C139.604 30.2215 139.475 30.1891 139.359 30.1241C139.256 30.0722 139.173 29.9813 139.108 29.8514C139.057 29.7215 139.031 29.5591 139.031 29.3643V21.2595C139.031 20.9998 139.095 20.8049 139.224 20.6751C139.353 20.5452 139.527 20.4802 139.746 20.4802C139.978 20.4802 140.152 20.5452 140.268 20.6751C140.396 20.8049 140.461 20.9998 140.461 21.2595V28.585H139.978L145.601 20.9868C145.704 20.8439 145.826 20.727 145.968 20.6361C146.109 20.5322 146.29 20.4802 146.509 20.4802C146.663 20.4802 146.792 20.5062 146.895 20.5582C146.998 20.6101 147.076 20.701 147.127 20.8309C147.191 20.9478 147.224 21.1102 147.224 21.318V29.4422C147.224 29.689 147.159 29.8838 147.03 30.0267C146.915 30.1566 146.741 30.2215 146.509 30.2215C146.277 30.2215 146.097 30.1566 145.968 30.0267C145.852 29.8838 145.794 29.689 145.794 29.4422V22.0973H146.277L140.635 29.715C140.545 29.8449 140.429 29.9618 140.287 30.0657C140.158 30.1696 139.978 30.2215 139.746 30.2215Z" fill="#152C68"/>
<path d="M157.116 30.2215C156.872 30.2215 156.679 30.1501 156.537 30.0072C156.408 29.8514 156.344 29.6436 156.344 29.3838V26.2471C155.983 26.4679 155.59 26.6367 155.165 26.7536C154.753 26.8575 154.315 26.9095 153.851 26.9095C152.511 26.9095 151.519 26.5913 150.875 25.9549C150.231 25.3054 149.909 24.3248 149.909 23.013V21.279C149.909 21.0193 149.974 20.8244 150.102 20.6945C150.244 20.5517 150.444 20.4802 150.701 20.4802C150.946 20.4802 151.133 20.5517 151.262 20.6945C151.403 20.8244 151.474 21.0193 151.474 21.279V22.8961C151.474 23.8312 151.674 24.5131 152.073 24.9418C152.486 25.3704 153.142 25.5847 154.044 25.5847C154.508 25.5847 154.92 25.5327 155.281 25.4288C155.642 25.3249 155.989 25.1561 156.324 24.9223V21.2985C156.324 20.753 156.582 20.4802 157.097 20.4802C157.355 20.4802 157.548 20.5517 157.677 20.6945C157.819 20.8374 157.889 21.0387 157.889 21.2985V29.3838C157.889 29.6436 157.825 29.8514 157.696 30.0072C157.567 30.1501 157.374 30.2215 157.116 30.2215Z" fill="#152C68"/>
<path d="M164.899 30.2605C163.984 30.2605 163.192 30.0592 162.522 29.6566C161.852 29.2539 161.331 28.6889 160.957 27.9616C160.596 27.2212 160.416 26.351 160.416 25.3509C160.416 24.5976 160.519 23.9222 160.725 23.3247C160.931 22.7142 161.234 22.1947 161.633 21.7661C162.033 21.3375 162.503 21.0128 163.044 20.792C163.598 20.5582 164.216 20.4413 164.899 20.4413C165.813 20.4413 166.606 20.6426 167.275 21.0452C167.945 21.4479 168.461 22.0194 168.821 22.7597C169.195 23.4871 169.382 24.3508 169.382 25.3509C169.382 26.1042 169.279 26.7796 169.072 27.3771C168.866 27.9746 168.564 28.4941 168.164 28.9357C167.765 29.3643 167.288 29.6955 166.734 29.9293C166.193 30.1501 165.581 30.2605 164.899 30.2605ZM164.899 28.9941C165.478 28.9941 165.987 28.8513 166.425 28.5655C166.863 28.2798 167.198 27.8642 167.43 27.3186C167.675 26.7731 167.797 26.1172 167.797 25.3509C167.797 24.1689 167.533 23.2662 167.005 22.6428C166.49 22.0194 165.788 21.7076 164.899 21.7076C164.306 21.7076 163.791 21.8505 163.353 22.1363C162.928 22.409 162.593 22.8181 162.348 23.3637C162.116 23.8962 162 24.5586 162 25.3509C162 26.5198 162.264 27.4225 162.793 28.059C163.321 28.6824 164.023 28.9941 164.899 28.9941Z" fill="#152C68"/>
<path d="M172.713 30.2215C172.455 30.2215 172.256 30.1501 172.114 30.0072C171.985 29.8644 171.921 29.663 171.921 29.4033V21.3375C171.921 21.0647 171.985 20.8634 172.114 20.7335C172.256 20.5906 172.455 20.5192 172.713 20.5192C172.958 20.5192 173.144 20.5906 173.273 20.7335C173.415 20.8634 173.486 21.0647 173.486 21.3375V24.5716H175.244L178.104 20.8699C178.233 20.714 178.374 20.6166 178.529 20.5776C178.684 20.5257 178.825 20.5257 178.954 20.5776C179.096 20.6166 179.205 20.6945 179.283 20.8114C179.373 20.9153 179.418 21.0452 179.418 21.2011C179.418 21.357 179.36 21.5193 179.244 21.6882L176.519 25.2145L176.075 24.708C176.436 24.7469 176.751 24.8378 177.022 24.9807C177.292 25.1236 177.55 25.3379 177.795 25.6236C178.039 25.9094 178.304 26.3055 178.587 26.8121L179.978 29.1305C180.068 29.3124 180.101 29.4747 180.075 29.6176C180.062 29.7605 179.997 29.8903 179.882 30.0072C179.766 30.1111 179.63 30.1761 179.476 30.2021C179.334 30.228 179.192 30.2086 179.051 30.1436C178.909 30.0787 178.78 29.9618 178.664 29.7929L177.138 27.2212C176.919 26.8575 176.713 26.5783 176.519 26.3835C176.326 26.1757 176.107 26.0328 175.862 25.9549C175.618 25.8769 175.315 25.838 174.954 25.838H173.486V29.4033C173.486 29.663 173.415 29.8644 173.273 30.0072C173.144 30.1501 172.958 30.2215 172.713 30.2215Z" fill="#152C68"/>
</g>
<defs>
<linearGradient id="paint0_linear_8_1851" x1="5.62901" y1="35.9308" x2="24.021" y2="2.39245" gradientUnits="userSpaceOnUse">
<stop stop-color="#152C68"/>
<stop offset="0.37" stop-color="#2B76B9"/>
<stop offset="0.65" stop-color="#2CACD1"/>
<stop offset="1" stop-color="#35EB93"/>
</linearGradient>
<linearGradient id="paint1_linear_8_1851" x1="14.561" y1="3.73366" x2="22.8104" y2="33.8911" gradientUnits="userSpaceOnUse">
<stop stop-color="#0ACFFE"/>
<stop offset="1" stop-color="#495AFF"/>
</linearGradient>
<linearGradient id="paint2_linear_8_1851" x1="3.96379" y1="23.0347" x2="24.298" y2="18.1362" gradientUnits="userSpaceOnUse">
<stop stop-color="#0ACFFE"/>
<stop offset="1" stop-color="#495AFF"/>
</linearGradient>
<linearGradient id="paint3_linear_8_1851" x1="15.5753" y1="39.7738" x2="0.0908825" y2="-1.94622" gradientUnits="userSpaceOnUse">
<stop stop-color="#152C68"/>
<stop offset="0.48" stop-color="#5753C9"/>
<stop offset="1" stop-color="#6E7FF3"/>
</linearGradient>
<clipPath id="clip0_8_1851">
<rect width="186" height="45.8529" fill="white"/>
</clipPath>
</defs>
</svg>
