<svg width="448" height="111" viewBox="0 0 448 111" fill="none" xmlns="http://www.w3.org/2000/svg">
<g clip-path="url(#clip0_4_30)">
<path d="M8.60802 24.2604C8.55261 22.6583 9.7666 21.2957 11.3645 21.1665L58.7304 17.3375C61.0044 17.1537 62.9714 18.9061 63.0503 21.1862L64.5649 64.9733C64.6388 67.1095 63.0202 68.9263 60.8896 69.0986L10.3004 73.1881L8.60802 24.2604Z" fill="url(#paint0_linear_4_30)"/>
<path d="M8.64005 25.025C8.5785 23.2455 10.0714 21.8044 11.8475 21.9286L54.2054 24.8907C54.7161 24.9264 55.1174 25.3421 55.1351 25.8537L56.857 75.6347C56.8776 76.2279 56.3799 76.7083 55.7879 76.6669L10.3163 73.487L8.64005 25.025Z" fill="url(#paint1_linear_4_30)"/>
<path d="M8.67998 26.1796C8.6061 24.0439 10.7255 22.5179 12.7276 23.2655L45.8456 35.6315C46.2248 35.7731 46.4813 36.1293 46.4952 36.5338L48.2119 86.1617C48.2366 86.8736 47.5301 87.3823 46.8627 87.1331L10.3163 73.487L8.67998 26.1796Z" fill="url(#paint2_linear_4_30)"/>
<path d="M8.66112 23.8326C8.60172 22.0508 10.7271 21.0876 12.0278 22.3068L37.1486 45.854C38.1132 46.7582 38.6805 48.0077 38.7262 49.3291L40.1335 90.014C40.2536 93.4854 36.196 95.4496 33.5477 93.2021L10.3165 73.487L8.66112 23.8326Z" fill="url(#paint3_linear_4_30)"/>
<path d="M97.3817 72.8855C96.1407 72.8855 95.1788 72.5414 94.4962 71.8532C93.8447 71.1649 93.5189 70.1951 93.5189 68.9438V42.8999C93.5189 41.6172 93.8757 40.6474 94.5893 39.9905C95.3029 39.3022 96.3113 38.9581 97.6144 38.9581C98.7004 38.9581 99.5536 39.1771 100.174 39.6151C100.826 40.0218 101.415 40.71 101.943 41.6798L111.949 59.7932H110.32L120.28 41.6798C120.838 40.71 121.427 40.0218 122.048 39.6151C122.7 39.1771 123.568 38.9581 124.654 38.9581C125.895 38.9581 126.842 39.3022 127.493 39.9905C128.176 40.6474 128.517 41.6172 128.517 42.8999V68.9438C128.517 70.1951 128.191 71.1649 127.54 71.8532C126.888 72.5414 125.926 72.8855 124.654 72.8855C123.413 72.8855 122.451 72.5414 121.769 71.8532C121.117 71.1649 120.791 70.1951 120.791 68.9438V52.8013H121.769L114.276 65.9405C113.841 66.6288 113.376 67.1449 112.88 67.4891C112.414 67.8332 111.778 68.0052 110.971 68.0052C110.196 68.0052 109.56 67.8332 109.063 67.4891C108.567 67.1449 108.117 66.6288 107.714 65.9405L100.174 52.7543H101.245V68.9438C101.245 70.1951 100.919 71.1649 100.267 71.8532C99.6157 72.5414 98.6538 72.8855 97.3817 72.8855Z" fill="#152C68"/>
<path d="M146.006 72.9794C143.462 72.9794 141.244 72.4945 139.351 71.5247C137.459 70.5549 135.985 69.1628 134.93 67.3483C133.875 65.5338 133.347 63.3909 133.347 60.9194C133.347 59.0424 133.642 57.3687 134.232 55.8984C134.821 54.3967 135.674 53.1297 136.791 52.0974C137.908 51.0337 139.243 50.236 140.794 49.7041C142.345 49.141 144.083 48.8595 146.006 48.8595C148.551 48.8595 150.769 49.3444 152.662 50.3142C154.554 51.284 156.013 52.6761 157.036 54.4906C158.091 56.2738 158.619 58.4167 158.619 60.9194C158.619 62.7652 158.324 64.4389 157.735 65.9405C157.145 67.4421 156.292 68.7248 155.175 69.7884C154.089 70.8208 152.755 71.6185 151.172 72.1817C149.621 72.7135 147.899 72.9794 146.006 72.9794ZM146.006 66.8321C146.844 66.8321 147.589 66.6288 148.24 66.2221C148.892 65.7841 149.388 65.1428 149.73 64.2981C150.102 63.4222 150.288 62.2959 150.288 60.9194C150.288 58.8234 149.885 57.3218 149.078 56.4145C148.271 55.476 147.247 55.0068 146.006 55.0068C145.169 55.0068 144.424 55.2101 143.772 55.6168C143.121 56.0235 142.609 56.6648 142.237 57.5408C141.864 58.3854 141.678 59.5117 141.678 60.9194C141.678 62.9842 142.082 64.4858 142.888 65.4243C143.695 66.3628 144.734 66.8321 146.006 66.8321Z" fill="#152C68"/>
<path d="M167.003 72.8855C166.165 72.8855 165.451 72.7291 164.862 72.4163C164.303 72.1034 163.884 71.6185 163.605 70.9616C163.326 70.3046 163.186 69.4756 163.186 68.4745V52.8951C163.186 51.6125 163.512 50.6427 164.164 49.9857C164.815 49.2975 165.746 48.9533 166.956 48.9533C168.135 48.9533 169.035 49.2975 169.655 49.9857C170.307 50.6427 170.633 51.6125 170.633 52.8951V63.5942H169.33L178.358 51.5812C178.793 51.0181 179.351 50.4393 180.034 49.8449C180.747 49.2505 181.74 48.9533 183.012 48.9533C183.881 48.9533 184.595 49.1097 185.153 49.4226C185.712 49.7354 186.131 50.2203 186.41 50.8773C186.689 51.503 186.829 52.332 186.829 53.3644V68.9438C186.829 70.1951 186.503 71.1649 185.851 71.8532C185.231 72.5414 184.316 72.8855 183.105 72.8855C181.895 72.8855 180.965 72.5414 180.313 71.8532C179.693 71.1649 179.382 70.1951 179.382 68.9438V58.1977H180.685L171.657 70.2577C171.253 70.8208 170.695 71.3996 169.981 71.9939C169.299 72.5883 168.306 72.8855 167.003 72.8855ZM175.008 46.5132C172.743 46.5132 170.881 46.0439 169.423 45.1054C167.964 44.1356 166.941 42.8999 166.351 41.3983C166.072 40.6474 166.056 40.0218 166.304 39.5212C166.584 38.9894 167.034 38.6296 167.654 38.4419C168.275 38.2229 168.802 38.2542 169.237 38.5358C169.671 38.8173 170.105 39.3022 170.54 39.9905C171.005 40.7413 171.595 41.3044 172.308 41.6798C173.053 42.0552 173.953 42.2429 175.008 42.2429C176.093 42.2429 176.993 42.0552 177.707 41.6798C178.42 41.3044 179.01 40.7413 179.475 39.9905C179.91 39.3022 180.344 38.8173 180.778 38.5358C181.244 38.2542 181.771 38.2229 182.361 38.4419C183.012 38.6296 183.462 38.9894 183.711 39.5212C183.99 40.0218 183.974 40.6474 183.664 41.3983C183.012 42.8999 181.973 44.1356 180.546 45.1054C179.119 46.0439 177.272 46.5132 175.008 46.5132Z" fill="#152C68"/>
<path d="M192.131 80.1591C191.573 80.1591 191.138 80.0026 190.828 79.6898C190.549 79.377 190.409 78.9233 190.409 78.3289V71.1493C190.409 69.8666 191.045 69.2253 192.317 69.2253H195.342L193.062 69.8823C194.861 67.8801 196.196 65.0958 197.064 61.5295C197.933 57.9318 198.367 53.3956 198.367 47.921V41.4921C198.367 40.8039 198.538 40.2877 198.879 39.9436C199.252 39.5682 199.779 39.3804 200.462 39.3804H218.054C218.705 39.3804 219.217 39.5682 219.59 39.9436C219.962 40.2877 220.148 40.8039 220.148 41.4921V70.7739L218.612 69.2253H222.848C223.468 69.2253 223.949 69.3974 224.29 69.7415C224.632 70.0543 224.802 70.5236 224.802 71.1493V78.3289C224.802 79.549 224.228 80.1591 223.08 80.1591C222.491 80.1591 222.041 80.0026 221.731 79.6898C221.451 79.377 221.312 78.9233 221.312 78.3289V72.4632H193.853V78.3289C193.853 79.549 193.279 80.1591 192.131 80.1591ZM197.623 69.2253H216.285V42.6183H201.951V48.2025C201.951 53.2392 201.594 57.4469 200.881 60.8256C200.198 64.2042 199.112 67.0042 197.623 69.2253Z" fill="#152C68"/>
<path d="M231.472 72.7917C230.852 72.7917 230.371 72.6196 230.03 72.2755C229.719 71.9314 229.564 71.4465 229.564 70.8208V51.2527C229.564 50.5957 229.719 50.1108 230.03 49.798C230.371 49.4852 230.852 49.3287 231.472 49.3287C232.062 49.3287 232.512 49.4852 232.822 49.798C233.163 50.1108 233.334 50.5957 233.334 51.2527V59.1363H245.667V51.2527C245.667 50.5957 245.822 50.1108 246.133 49.798C246.474 49.4852 246.939 49.3287 247.529 49.3287C248.118 49.3287 248.584 49.4852 248.925 49.798C249.266 50.1108 249.437 50.5957 249.437 51.2527V70.8208C249.437 71.4465 249.266 71.9314 248.925 72.2755C248.584 72.6196 248.118 72.7917 247.529 72.7917C246.939 72.7917 246.474 72.6196 246.133 72.2755C245.822 71.9314 245.667 71.4465 245.667 70.8208V62.2334H233.334V70.8208C233.334 71.4465 233.179 71.9314 232.869 72.2755C232.558 72.6196 232.093 72.7917 231.472 72.7917Z" fill="#152C68"/>
<path d="M267.118 72.8855C264.729 72.8855 262.666 72.4163 260.928 71.4778C259.222 70.508 257.888 69.1471 256.926 67.3952C255.995 65.6433 255.53 63.5473 255.53 61.1071C255.53 58.7296 255.995 56.6648 256.926 54.9129C257.857 53.1297 259.129 51.7376 260.742 50.7365C262.387 49.7354 264.279 49.2349 266.42 49.2349C267.94 49.2349 269.306 49.5008 270.516 50.0326C271.726 50.5332 272.75 51.2683 273.587 52.2381C274.456 53.2079 275.108 54.3811 275.542 55.7576C276.007 57.1341 276.24 58.6826 276.24 60.4033C276.24 60.9038 276.1 61.2792 275.821 61.5295C275.542 61.7485 275.139 61.858 274.611 61.858H258.415V59.3709H273.727L272.982 59.9809C272.982 58.2916 272.734 56.8682 272.238 55.7107C271.741 54.5219 271.012 53.6146 270.05 52.989C269.119 52.3633 267.94 52.0504 266.513 52.0504C264.931 52.0504 263.581 52.4258 262.464 53.1767C261.378 53.8962 260.556 54.9129 259.998 56.2268C259.439 57.5095 259.16 59.0111 259.16 60.7317V61.0133C259.16 63.8914 259.842 66.0813 261.208 67.5829C262.604 69.0845 264.574 69.8354 267.118 69.8354C268.173 69.8354 269.212 69.6946 270.236 69.413C271.291 69.1315 272.315 68.6622 273.308 68.0052C273.742 67.7237 274.13 67.5986 274.472 67.6298C274.844 67.6298 275.139 67.7393 275.356 67.9583C275.573 68.146 275.713 68.3963 275.775 68.7091C275.868 68.9907 275.837 69.3035 275.682 69.6477C275.557 69.9918 275.294 70.289 274.89 70.5392C273.867 71.2901 272.656 71.8688 271.26 72.2755C269.864 72.6822 268.483 72.8855 267.118 72.8855Z" fill="#152C68"/>
<path d="M284.058 72.4632C283.438 72.4632 282.957 72.2911 282.616 71.947C282.274 71.6029 282.104 71.118 282.104 70.4923V51.6281C282.104 51.0024 282.274 50.5175 282.616 50.1734C282.957 49.8293 283.438 49.6572 284.058 49.6572H293.134C294.933 49.6572 296.407 49.8918 297.555 50.3611C298.703 50.7991 299.556 51.4717 300.115 52.3789C300.673 53.2549 300.953 54.3498 300.953 55.6637C300.953 57.1028 300.441 58.3229 299.417 59.324C298.424 60.325 297.121 60.9194 295.507 61.1071V60.4971C297.431 60.5597 298.936 61.1071 300.022 62.1395C301.139 63.1719 301.697 64.5171 301.697 66.1751C301.697 68.1147 300.984 69.6477 299.556 70.7739C298.129 71.9001 296.112 72.4632 293.506 72.4632H284.058ZM285.687 69.8823H293.367C294.887 69.8823 296.05 69.5538 296.857 68.8968C297.695 68.2086 298.114 67.2388 298.114 65.9874C298.114 64.7361 297.695 63.7819 296.857 63.125C296.05 62.468 294.887 62.1395 293.367 62.1395H285.687V69.8823ZM285.687 59.5586H292.948C294.344 59.5586 295.43 59.2301 296.205 58.5731C297.012 57.9162 297.415 57.0089 297.415 55.8514C297.415 54.6939 297.012 53.8023 296.205 53.1767C295.43 52.551 294.344 52.2381 292.948 52.2381H285.687V59.5586Z" fill="#152C68"/>
<path d="M309.464 72.7917C308.843 72.7917 308.362 72.6196 308.021 72.2755C307.711 71.9314 307.555 71.4465 307.555 70.8208V51.2527C307.555 50.5957 307.711 50.1108 308.021 49.798C308.362 49.4852 308.843 49.3287 309.464 49.3287C310.053 49.3287 310.503 49.4852 310.813 49.798C311.155 50.1108 311.325 50.5957 311.325 51.2527V59.1363H323.658V51.2527C323.658 50.5957 323.813 50.1108 324.124 49.798C324.465 49.4852 324.93 49.3287 325.52 49.3287C326.109 49.3287 326.575 49.4852 326.916 49.798C327.257 50.1108 327.428 50.5957 327.428 51.2527V70.8208C327.428 71.4465 327.257 71.9314 326.916 72.2755C326.575 72.6196 326.109 72.7917 325.52 72.7917C324.93 72.7917 324.465 72.6196 324.124 72.2755C323.813 71.9314 323.658 71.4465 323.658 70.8208V62.2334H311.325V70.8208C311.325 71.4465 311.17 71.9314 310.86 72.2755C310.55 72.6196 310.084 72.7917 309.464 72.7917Z" fill="#152C68"/>
<path d="M336.593 72.7917C336.251 72.7917 335.941 72.7135 335.662 72.5571C335.413 72.4319 335.212 72.2129 335.057 71.9001C334.933 71.5873 334.871 71.1962 334.871 70.7269V51.2058C334.871 50.5801 335.026 50.1108 335.336 49.798C335.646 49.4852 336.065 49.3287 336.593 49.3287C337.151 49.3287 337.57 49.4852 337.849 49.798C338.159 50.1108 338.315 50.5801 338.315 51.2058V68.8499H337.151L350.694 50.5488C350.942 50.2047 351.237 49.9231 351.578 49.7041C351.92 49.4539 352.354 49.3287 352.882 49.3287C353.254 49.3287 353.564 49.3913 353.812 49.5164C354.061 49.6416 354.247 49.8606 354.371 50.1734C354.526 50.455 354.604 50.846 354.604 51.3466V70.9147C354.604 71.509 354.448 71.9783 354.138 72.3224C353.859 72.6353 353.44 72.7917 352.882 72.7917C352.323 72.7917 351.889 72.6353 351.578 72.3224C351.299 71.9783 351.16 71.509 351.16 70.9147V53.2236H352.323L338.733 71.5716C338.516 71.8845 338.237 72.166 337.896 72.4163C337.585 72.6666 337.151 72.7917 336.593 72.7917Z" fill="#152C68"/>
<path d="M378.431 72.7917C377.842 72.7917 377.377 72.6196 377.035 72.2755C376.725 71.9001 376.57 71.3996 376.57 70.7739V63.2188C375.701 63.7506 374.755 64.1573 373.731 64.4389C372.738 64.6891 371.683 64.8143 370.566 64.8143C367.339 64.8143 364.95 64.0478 363.399 62.5149C361.848 60.9507 361.072 58.5888 361.072 55.4291V51.2527C361.072 50.627 361.227 50.1578 361.537 49.8449C361.879 49.5008 362.36 49.3287 362.98 49.3287C363.57 49.3287 364.02 49.5008 364.33 49.8449C364.671 50.1578 364.842 50.627 364.842 51.2527V55.1476C364.842 57.4 365.323 59.0424 366.284 60.0748C367.277 61.1071 368.86 61.6233 371.032 61.6233C372.149 61.6233 373.141 61.4982 374.01 61.2479C374.879 60.9976 375.717 60.591 376.523 60.0278V51.2996C376.523 49.9857 377.144 49.3287 378.385 49.3287C379.005 49.3287 379.471 49.5008 379.781 49.8449C380.122 50.189 380.293 50.6739 380.293 51.2996V70.7739C380.293 71.3996 380.138 71.9001 379.828 72.2755C379.517 72.6196 379.052 72.7917 378.431 72.7917Z" fill="#152C68"/>
<path d="M397.176 72.8855C394.973 72.8855 393.065 72.4006 391.451 71.4308C389.838 70.461 388.581 69.1002 387.682 67.3483C386.813 65.5651 386.379 63.4691 386.379 61.0602C386.379 59.2457 386.627 57.619 387.123 56.1799C387.62 54.7096 388.349 53.4582 389.311 52.4258C390.272 51.3935 391.405 50.6114 392.708 50.0796C394.042 49.5164 395.531 49.2349 397.176 49.2349C399.379 49.2349 401.287 49.7198 402.9 50.6896C404.514 51.6594 405.755 53.0359 406.624 54.8191C407.523 56.571 407.973 58.6514 407.973 61.0602C407.973 62.8747 407.725 64.5014 407.229 65.9405C406.732 67.3796 406.003 68.6309 405.041 69.6946C404.079 70.727 402.931 71.5247 401.597 72.0878C400.294 72.6196 398.82 72.8855 397.176 72.8855ZM397.176 69.8354C398.572 69.8354 399.798 69.4912 400.853 68.803C401.907 68.1147 402.714 67.1137 403.273 65.7997C403.862 64.4858 404.157 62.906 404.157 61.0602C404.157 58.2134 403.521 56.0391 402.249 54.5375C401.008 53.0359 399.317 52.2851 397.176 52.2851C395.749 52.2851 394.508 52.6292 393.453 53.3174C392.429 53.9744 391.622 54.9598 391.033 56.2738C390.474 57.5564 390.195 59.1519 390.195 61.0602C390.195 63.8758 390.831 66.05 392.103 67.5829C393.375 69.0845 395.066 69.8354 397.176 69.8354Z" fill="#152C68"/>
<path d="M415.997 72.7917C415.376 72.7917 414.896 72.6196 414.554 72.2755C414.244 71.9314 414.089 71.4465 414.089 70.8208V51.3935C414.089 50.7365 414.244 50.2516 414.554 49.9388C414.896 49.5947 415.376 49.4226 415.997 49.4226C416.587 49.4226 417.036 49.5947 417.347 49.9388C417.688 50.2516 417.859 50.7365 417.859 51.3935V59.1832H422.094L428.982 50.2673C429.292 49.8918 429.633 49.6572 430.006 49.5634C430.378 49.4382 430.719 49.4382 431.029 49.5634C431.371 49.6572 431.635 49.8449 431.821 50.1265C432.038 50.3767 432.146 50.6896 432.146 51.065C432.146 51.4404 432.007 51.8315 431.728 52.2381L425.165 60.7317L424.095 59.5117C424.964 59.6055 425.724 59.8245 426.375 60.1686C427.027 60.5127 427.648 61.0289 428.237 61.7172C428.827 62.4054 429.463 63.3596 430.145 64.5797L433.496 70.1638C433.713 70.6018 433.791 70.9929 433.729 71.337C433.698 71.6811 433.543 71.9939 433.263 72.2755C432.984 72.5258 432.658 72.6822 432.286 72.7448C431.945 72.8073 431.603 72.7604 431.262 72.604C430.921 72.4476 430.611 72.166 430.331 71.7593L426.655 65.5651C426.127 64.6891 425.631 64.0165 425.165 63.5473C424.7 63.0467 424.173 62.7026 423.583 62.5149C422.994 62.3272 422.264 62.2334 421.396 62.2334H417.859V70.8208C417.859 71.4465 417.688 71.9314 417.347 72.2755C417.036 72.6196 416.587 72.7917 415.997 72.7917Z" fill="#152C68"/>
</g>
<defs>
<linearGradient id="paint0_linear_4_30" x1="13.5577" y1="86.5429" x2="57.8567" y2="5.76247" gradientUnits="userSpaceOnUse">
<stop stop-color="#152C68"/>
<stop offset="0.37" stop-color="#2B76B9"/>
<stop offset="0.65" stop-color="#2CACD1"/>
<stop offset="1" stop-color="#35EB93"/>
</linearGradient>
<linearGradient id="paint1_linear_4_30" x1="35.0717" y1="8.99289" x2="54.9411" y2="81.6302" gradientUnits="userSpaceOnUse">
<stop stop-color="#0ACFFE"/>
<stop offset="1" stop-color="#495AFF"/>
</linearGradient>
<linearGradient id="paint2_linear_4_30" x1="9.54704" y1="55.4814" x2="58.5241" y2="43.6829" gradientUnits="userSpaceOnUse">
<stop stop-color="#0ACFFE"/>
<stop offset="1" stop-color="#495AFF"/>
</linearGradient>
<linearGradient id="paint3_linear_4_30" x1="37.5146" y1="95.7993" x2="0.218762" y2="-4.68767" gradientUnits="userSpaceOnUse">
<stop stop-color="#152C68"/>
<stop offset="0.48" stop-color="#5753C9"/>
<stop offset="1" stop-color="#6E7FF3"/>
</linearGradient>
<clipPath id="clip0_4_30">
<rect width="448" height="110.441" fill="white"/>
</clipPath>
</defs>
</svg>
